<?xml version="1.0" encoding="UTF-8"?>
<svg id="Lager_1" data-name="Lager 1" xmlns="http://www.w3.org/2000/svg" viewBox="0 0 185.11 185.12">
  <defs>
    <style>
      .cls-1 {
        fill: #fff;
        stroke-width: 0px;
      }
    </style>
  </defs>
  <path class="cls-1" d="M82.5,115.11h99.84c1.81-7.22,2.77-14.77,2.77-22.55C185.11,41.44,143.67,0,92.55,0c-3.4,0-6.75.19-10.05.54v114.56h0Z"/>
  <path class="cls-1" d="M36.78,115.11V18.7C14.44,35.6,0,62.4,0,92.57c0,7.78.96,15.33,2.77,22.55h34.01Z"/>
  <path class="cls-1" d="M82.5,130.56v54.02c3.3.36,6.65.54,10.05.54,37.58,0,69.93-22.4,84.43-54.57h-94.48,0Z"/>
  <path class="cls-1" d="M36.78,130.56H8.13c6.42,14.24,16.33,26.56,28.65,35.88v-35.88Z"/>
</svg>